<svg xmlns="http://www.w3.org/2000/svg" viewBox="0 0 959.38 248.23"><defs><style>.cls-1{fill:#fff;}.cls-2{fill:#1c2f40;}.cls-3{fill:#2db8c5;}</style></defs><title>Recurso 3</title><g id="Capa_2" data-name="Capa 2"><g id="Capa_4" data-name="Capa 4"><path class="cls-1" d="M240.23,55.49V175.64A68.61,68.61,0,0,1,120.13,221,68.63,68.63,0,0,1,0,175.64V55.49A68.32,68.32,0,0,1,17.49,9.74,17.15,17.15,0,1,1,43.06,32.61a34.24,34.24,0,0,0-8.73,22.88V175.64a34.32,34.32,0,0,0,68.63,0V89.8a17.08,17.08,0,0,1,4.06-11,2.85,2.85,0,0,1,.31-.38A17.15,17.15,0,0,1,131.55,77a15.33,15.33,0,0,1,1.68,1.75,17,17,0,0,1,4,11h0v84.92c0,.28,0,.59,0,.87v0a34.33,34.33,0,0,0,68.65,0V55.49a34.12,34.12,0,0,0-8.76-22.88,17.16,17.16,0,0,1,25.6-22.87A68.4,68.4,0,0,1,240.23,55.49Z"/><path class="cls-2" d="M137.29,174.72v.92h0v0C137.27,175.31,137.27,175,137.29,174.72Z"/><path class="cls-3" d="M377.52,248.23H326a72.62,72.62,0,0,1-51.23-124.1A72.64,72.64,0,0,1,326,0h51.49A72.55,72.55,0,0,1,426,18.51a21.16,21.16,0,1,1-28.21,31.54,30.4,30.4,0,0,0-12.64-6.76,30,30,0,0,0-7.58-1H326a30,30,0,0,0-7.54,1l-.51.12A30.32,30.32,0,0,0,326,103h17.19a21.12,21.12,0,0,1,13.49,4.89,6,6,0,0,1,.67.56,21.2,21.2,0,0,1,3.42,27.46A19.71,19.71,0,0,1,359,138.2a17.45,17.45,0,0,1-2.22,2.11,21,21,0,0,1-9.57,4.57v.39l-4,0H326a30.32,30.32,0,0,0,0,60.63h51.49a30.19,30.19,0,0,0,20.21-7.74,21.23,21.23,0,0,1,29.9,1.69h0a21.18,21.18,0,0,1-1.69,29.87A72.58,72.58,0,0,1,377.52,248.23ZM326,8A64.63,64.63,0,0,0,283.3,121.12l3.4,3-3.4,3A64.62,64.62,0,0,0,326,240.23h51.49a64.58,64.58,0,0,0,43.09-16.46,13.17,13.17,0,0,0,1.05-18.57h0a13.2,13.2,0,0,0-18.6-1,38.29,38.29,0,0,1-25.54,9.77H326a38.32,38.32,0,1,1,0-76.63l17.19,0a13.1,13.1,0,0,0,8.46-3.11l.15-.12A8.36,8.36,0,0,0,353,132.9a12.79,12.79,0,0,0,1.1-1.43,13.05,13.05,0,0,0,0-14.63,13.28,13.28,0,0,0-2.18-2.53l-.29-.23a13.16,13.16,0,0,0-8.47-3.12H326a38.31,38.31,0,0,1-9.56-75.42l.52-.13a38.21,38.21,0,0,1,9-1.08h51.49a38.26,38.26,0,0,1,25.55,9.75A13.16,13.16,0,0,0,425,33.53a13,13,0,0,0-4.37-9A64.51,64.51,0,0,0,377.52,8Z"/><path class="cls-1" d="M955,202a17.13,17.13,0,0,1-1.37,24.22,68.4,68.4,0,0,1-45.75,17.47H856.4A68.61,68.61,0,0,1,811,123.61,68.63,68.63,0,0,1,856.4,3.48h51.49A68.28,68.28,0,0,1,953.64,21a17.15,17.15,0,1,1-22.87,25.57,34.36,34.36,0,0,0-22.88-8.74H856.4a34,34,0,0,0-8.55,1.09h0a34.32,34.32,0,0,0,8.57,67.55h17.18a17,17,0,0,1,11,4.06,1.86,1.86,0,0,1,.38.3,16.46,16.46,0,0,1,2.83,3.28,17.07,17.07,0,0,1,0,19,16.22,16.22,0,0,1-1.46,1.92,12.33,12.33,0,0,1-1.75,1.65,17,17,0,0,1-11,4.06v0H856.4a34.32,34.32,0,0,0,0,68.64h51.49a34.35,34.35,0,0,0,22.88-8.76A17.16,17.16,0,0,1,955,202Z"/><path class="cls-1" d="M549.12,175.59a68.64,68.64,0,0,1-68.64,68.64H429a68.14,68.14,0,0,1-17.14-2.17,68.46,68.46,0,0,0,28.59-15.3,17.06,17.06,0,0,0,5.24-16.86h34.8a34,34,0,0,0,8.55-1.09h0a34.31,34.31,0,0,0-8.57-67.54H463.29a17.08,17.08,0,0,1-11-4.06,2.33,2.33,0,0,1-.38-.31,16.85,16.85,0,0,1-2.84-3.28,17.1,17.1,0,0,1,0-19,17.48,17.48,0,0,1,1.47-1.92,12.33,12.33,0,0,1,1.75-1.65,17,17,0,0,1,11-4.06v0h17.19a34.32,34.32,0,0,0,0-68.64h-34.8a17.08,17.08,0,0,0-5.24-16.81A68.51,68.51,0,0,0,411.85,6.17,68.14,68.14,0,0,1,429,4h51.49a68.61,68.61,0,0,1,45.38,120.1A68.44,68.44,0,0,1,549.12,175.59Z"/><path class="cls-1" d="M601.61,21.16v205.9a17.15,17.15,0,1,1-34.3,0V21.16a17.15,17.15,0,0,1,34.3,0Z"/><path class="cls-1" d="M772.67,225.6a68.34,68.34,0,0,0-20-44.71l-57.44-57.45,57.13-57.15a68.25,68.25,0,0,0,20-44.7,17.16,17.16,0,0,0-34.26-1.93,34.15,34.15,0,0,1-10,22.38L671,99.17,669.73,98V20.65a17.11,17.11,0,0,0-4.37-11.43,16.6,16.6,0,0,0-5-3.85,17.15,17.15,0,0,0-24.91,15.28v205.9a17.14,17.14,0,0,0,25.22,15.13,15.27,15.27,0,0,0,3.38-2.34,17.2,17.2,0,0,0,5.71-12.79V148.94l1.23-1.23,57.44,57.45a34.32,34.32,0,0,1,10,22.36,17.16,17.16,0,0,0,34.26-1.92Z"/></g></g></svg>