<svg xmlns="http://www.w3.org/2000/svg" viewBox="0 0 406.35 438.05"><defs><style>.cls-1{fill:#fff;}.cls-2{fill:#1c2f40;}.cls-3{fill:#2db8c5;}.cls-4{fill:#3cb8c3;}</style></defs><title>Recurso 2</title><g id="Capa_2" data-name="Capa 2"><g id="Capa_4" data-name="Capa 4"><path class="cls-1" d="M101.75,356.11V407a29.06,29.06,0,0,1-50.87,19.2A29.07,29.07,0,0,1,0,407V356.11a28.94,28.94,0,0,1,7.41-19.38,7.27,7.27,0,0,1,10.83,9.69,14.49,14.49,0,0,0-3.7,9.69V407a14.54,14.54,0,0,0,29.07,0V370.64A7.23,7.23,0,0,1,45.33,366a1,1,0,0,1,.13-.16,7.26,7.26,0,0,1,10.26-.57,6.18,6.18,0,0,1,.71.74,7.22,7.22,0,0,1,1.71,4.67h0v36c0,.12,0,.25,0,.37v0a14.54,14.54,0,0,0,29.08,0V356.11a14.45,14.45,0,0,0-3.71-9.69,7.27,7.27,0,0,1,10.84-9.69A29,29,0,0,1,101.75,356.11Z"/><path class="cls-2" d="M58.15,406.61V407h0v0C58.14,406.86,58.14,406.73,58.15,406.61Z"/><path class="cls-3" d="M159.9,438.05H138.09A31.06,31.06,0,0,1,116,385.18a31.07,31.07,0,0,1,22.13-52.88H159.9a31,31,0,0,1,20.72,7.92,9.27,9.27,0,0,1,.73,13.08,9.29,9.29,0,0,1-13.09.73,12.41,12.41,0,0,0-8.36-3.19H138.09a12.64,12.64,0,0,0-3.12.39l-.25.07a12.53,12.53,0,0,0,.24,24.21,12.67,12.67,0,0,0,3.13.4h7.28a9.23,9.23,0,0,1,5.9,2.13l.31.25a9,9,0,0,1,1.5,1.76,9.18,9.18,0,0,1,0,10.27,7.94,7.94,0,0,1-.78,1,6.54,6.54,0,0,1-1,1,8.94,8.94,0,0,1-3.9,1.92v.22h-9.28a12.66,12.66,0,0,0-3.13.39,12.53,12.53,0,0,0,0,24.28,12.65,12.65,0,0,0,3.12.4H159.9a12.53,12.53,0,0,0,3.12-.4,12.36,12.36,0,0,0,5.24-2.8,9.3,9.3,0,0,1,13.09.73h0a9.28,9.28,0,0,1-.74,13.09A31,31,0,0,1,159.9,438.05ZM138.09,336.3a27.07,27.07,0,0,0-17.9,47.38l1.71,1.5-1.71,1.5a27.07,27.07,0,0,0,17.9,47.37H159.9a27.06,27.06,0,0,0,18-6.89,5.28,5.28,0,0,0,.42-7.44h0a5.29,5.29,0,0,0-7.45-.42,16.61,16.61,0,0,1-11,4.22H138.09A16.34,16.34,0,0,1,134,423a16.53,16.53,0,0,1,0-32,16.33,16.33,0,0,1,4.12-.52h7.28a5.22,5.22,0,0,0,3.39-1.25,4.43,4.43,0,0,0,.54-.5,5,5,0,0,0,.43-.56,5.29,5.29,0,0,0-.85-6.88l-.12-.1a5.26,5.26,0,0,0-3.39-1.24h-7.28A16.54,16.54,0,0,1,134,347.36l.26-.06a16.17,16.17,0,0,1,3.86-.46H159.9a16.37,16.37,0,0,1,4.14.52,16.56,16.56,0,0,1,6.89,3.69,5.28,5.28,0,0,0,7.44-.42,5.26,5.26,0,0,0-.42-7.43,27,27,0,0,0-18-6.9Z"/><path class="cls-1" d="M404.5,418.17a7.26,7.26,0,0,1-.58,10.26,29,29,0,0,1-19.38,7.4H362.73A29.06,29.06,0,0,1,343.51,385a29.07,29.07,0,0,1,19.22-50.88h21.81a28.94,28.94,0,0,1,19.38,7.41,7.27,7.27,0,1,1-9.69,10.83,14.53,14.53,0,0,0-9.69-3.7H362.73a14.42,14.42,0,0,0-3.62.46h0a14.54,14.54,0,0,0,3.63,28.61H370a7.23,7.23,0,0,1,4.68,1.72l.16.13a7.13,7.13,0,0,1,1.2,1.39,7.24,7.24,0,0,1,0,8.06,6.7,6.7,0,0,1-.62.81,5.4,5.4,0,0,1-.74.7,7.22,7.22,0,0,1-4.68,1.72h-7.28a14.54,14.54,0,0,0,0,29.07h21.81a14.53,14.53,0,0,0,9.69-3.71A7.28,7.28,0,0,1,404.5,418.17Z"/><path class="cls-1" d="M232.58,407a29.07,29.07,0,0,1-29.07,29.07H181.7a28.79,28.79,0,0,1-7.26-.92,28.91,28.91,0,0,0,12.11-6.48,7.23,7.23,0,0,0,2.22-7.14h14.74a14.42,14.42,0,0,0,3.62-.46h0a14.54,14.54,0,0,0-3.63-28.61h-7.28a7.23,7.23,0,0,1-4.68-1.72l-.16-.13a7.13,7.13,0,0,1-1.2-1.39,7.24,7.24,0,0,1,0-8.06,6.7,6.7,0,0,1,.62-.81,5.4,5.4,0,0,1,.74-.7,7.22,7.22,0,0,1,4.68-1.72h7.28a14.54,14.54,0,0,0,0-29.07H188.77a7.23,7.23,0,0,0-2.22-7.12,28.93,28.93,0,0,0-12.11-6.49,28.79,28.79,0,0,1,7.26-.92h21.81a29.06,29.06,0,0,1,19.22,50.87A29,29,0,0,1,232.58,407Z"/><path class="cls-1" d="M254.82,341.57v87.21a7.27,7.27,0,1,1-14.53,0V341.57a7.27,7.27,0,0,1,14.53,0Z"/><path class="cls-1" d="M327.27,428.16a28.94,28.94,0,0,0-8.47-18.94l-24.33-24.33,24.2-24.21a28.9,28.9,0,0,0,8.47-18.93,7.27,7.27,0,0,0-14.51-.82,14.47,14.47,0,0,1-4.23,9.48l-24.21,24.2-.52-.52V341.35a7.25,7.25,0,0,0-1.85-4.84,7.08,7.08,0,0,0-2.13-1.63,7.26,7.26,0,0,0-10.55,6.47v87.21A7.26,7.26,0,0,0,279.82,435a6.54,6.54,0,0,0,1.43-1,7.28,7.28,0,0,0,2.42-5.42V395.69l.52-.52,24.33,24.33a14.52,14.52,0,0,1,4.24,9.47,7.27,7.27,0,0,0,14.51-.81Z"/><path class="cls-3" d="M183,124.8a29.07,29.07,0,1,0,41.11,0A29.06,29.06,0,0,0,183,124.8Zm36.29,36.29a22.26,22.26,0,1,1,0-31.48A22.27,22.27,0,0,1,219.25,161.09Z"/><path class="cls-4" d="M306.29,42.57A145.35,145.35,0,0,1,100.73,248.13a14.55,14.55,0,0,0,20.57-20.57A116.27,116.27,0,0,0,285.73,63.14a14.54,14.54,0,1,1,20.56-20.57Z"/><path class="cls-1" d="M306.29,42.57a14.54,14.54,0,1,0-20.56,20.57A116.27,116.27,0,0,0,121.3,227.56a14.55,14.55,0,0,1-20.57,20.57A145.35,145.35,0,0,1,306.29,42.57Z"/></g></g></svg>