<svg xmlns="http://www.w3.org/2000/svg" viewBox="0 0 959.38 240.76"><defs><style>.cls-1{fill:#1c2f40;}.cls-2{fill:#2db8c5;}</style></defs><title>Recurso 6</title><g id="Capa_2" data-name="Capa 2"><g id="Capa_4" data-name="Capa 4"><path class="cls-1" d="M240.23,52V172.17a68.62,68.62,0,0,1-120.1,45.33A68.64,68.64,0,0,1,0,172.17V52A68.33,68.33,0,0,1,17.49,6.26,17.16,17.16,0,1,1,43.06,29.14,34.22,34.22,0,0,0,34.33,52V172.17a34.32,34.32,0,0,0,68.63,0V86.32a17.08,17.08,0,0,1,4.06-11,2.85,2.85,0,0,1,.31-.38,17.14,17.14,0,0,1,24.22-1.34,13.84,13.84,0,0,1,1.68,1.75,17,17,0,0,1,4,11h0v84.92c0,.29,0,.59,0,.88v0a34.33,34.33,0,0,0,68.65,0V52a34.11,34.11,0,0,0-8.76-22.88,17.17,17.17,0,0,1,25.6-22.88A68.4,68.4,0,0,1,240.23,52Z"/><path class="cls-1" d="M137.29,171.24v.93h0v0C137.27,171.83,137.27,171.53,137.29,171.24Z"/><path class="cls-2" d="M424.65,199.06a17.15,17.15,0,0,1-1.37,24.22,68.4,68.4,0,0,1-45.76,17.47H326a68.62,68.62,0,0,1-45.38-120.1A68.64,68.64,0,0,1,326,.52h51.49A68.29,68.29,0,0,1,423.28,18,17.16,17.16,0,1,1,400.4,43.59a34.36,34.36,0,0,0-22.88-8.74H326a34,34,0,0,0-8.55,1.09h0A34.31,34.31,0,0,0,326,103.48h17.19a17,17,0,0,1,11,4.07,2.18,2.18,0,0,1,.38.3,16.8,16.8,0,0,1,2.83,3.28,17.1,17.1,0,0,1,0,19,17.37,17.37,0,0,1-1.46,1.92,13.51,13.51,0,0,1-1.75,1.65,17.07,17.07,0,0,1-11,4.06v0H326a34.32,34.32,0,0,0,0,68.64h51.49a34.35,34.35,0,0,0,22.88-8.76A17.17,17.17,0,0,1,424.65,199.06Z"/><path class="cls-1" d="M955,198.54a17.13,17.13,0,0,1-1.37,24.22,68.4,68.4,0,0,1-45.75,17.47H856.4A68.61,68.61,0,0,1,811,120.13,68.63,68.63,0,0,1,856.4,0h51.49A68.32,68.32,0,0,1,953.64,17.5a17.15,17.15,0,1,1-22.87,25.57,34.25,34.25,0,0,0-22.88-8.73H856.4a34,34,0,0,0-8.55,1.08h0A34.32,34.32,0,0,0,856.4,103h17.18a17,17,0,0,1,11,4.06,1.91,1.91,0,0,1,.38.31,16.46,16.46,0,0,1,2.83,3.28,17.07,17.07,0,0,1,0,19,15.35,15.35,0,0,1-1.46,1.91,12.33,12.33,0,0,1-1.75,1.65,17,17,0,0,1-11,4.06v0H856.4a34.32,34.32,0,0,0,0,68.63h51.49a33.59,33.59,0,0,0,8.55-1.09,34.08,34.08,0,0,0,14.33-7.67A17.17,17.17,0,0,1,955,198.54Z"/><path class="cls-1" d="M549.12,172.12a68.64,68.64,0,0,1-68.64,68.63H429a68.14,68.14,0,0,1-17.14-2.17,68.35,68.35,0,0,0,28.59-15.3,17.06,17.06,0,0,0,5.24-16.86h34.8a34.48,34.48,0,0,0,8.55-1.08h0a34.32,34.32,0,0,0-8.57-67.55H463.29a17.08,17.08,0,0,1-11-4.06,2.33,2.33,0,0,1-.38-.31,16.85,16.85,0,0,1-2.84-3.28,17.1,17.1,0,0,1,0-19,16.48,16.48,0,0,1,1.47-1.91,11.79,11.79,0,0,1,1.75-1.65,17,17,0,0,1,11-4.07v0h17.19a34.32,34.32,0,1,0,0-68.63h-34.8A17.06,17.06,0,0,0,440.44,18,68.28,68.28,0,0,0,411.85,2.7,67.7,67.7,0,0,1,429,.52h51.49a68.62,68.62,0,0,1,45.38,120.11A68.42,68.42,0,0,1,549.12,172.12Z"/><path class="cls-1" d="M601.61,17.69v205.9a17.15,17.15,0,1,1-34.3,0V17.69a17.15,17.15,0,0,1,34.3,0Z"/><path class="cls-1" d="M772.67,222.13a68.35,68.35,0,0,0-20-44.72L695.23,120l57.13-57.16a68.2,68.2,0,0,0,20-44.69,17.16,17.16,0,0,0-34.26-1.94,34.15,34.15,0,0,1-10,22.38L671,95.7l-1.23-1.23V17.17a17.13,17.13,0,0,0-4.37-11.43,16.73,16.73,0,0,0-5-3.84,17.14,17.14,0,0,0-24.91,15.27v205.9a17.14,17.14,0,0,0,25.22,15.13,15.56,15.56,0,0,0,3.38-2.33,17.22,17.22,0,0,0,5.71-12.8v-77.6l1.23-1.23,57.44,57.44a34.32,34.32,0,0,1,10,22.36,17.16,17.16,0,0,0,34.26-1.91Z"/></g></g></svg>