<svg xmlns="http://www.w3.org/2000/svg" viewBox="0 0 290.7 290.7"><defs><style>.cls-1{fill:#2db8c5;}.cls-2{fill:#3cb8c3;}.cls-3{fill:#1c2f40;}</style></defs><title>Recurso 4</title><g id="Capa_2" data-name="Capa 2"><g id="Capa_4" data-name="Capa 4"><path class="cls-1" d="M124.79,124.8a29.07,29.07,0,1,0,41.12,0A29.08,29.08,0,0,0,124.79,124.8Zm36.3,36.29a22.26,22.26,0,1,1,0-31.48A22.27,22.27,0,0,1,161.09,161.09Z"/><path class="cls-2" d="M248.13,42.57A145.35,145.35,0,0,1,42.57,248.13a14.55,14.55,0,0,0,20.57-20.57A116.27,116.27,0,0,0,227.57,63.14a14.54,14.54,0,0,1,20.56-20.57Z"/><path class="cls-3" d="M248.13,42.57a14.54,14.54,0,0,0-20.56,20.57A116.27,116.27,0,1,0,63.14,227.56a14.55,14.55,0,0,1-20.57,20.57A145.35,145.35,0,0,1,248.13,42.57Z"/></g></g></svg>